<svg xmlns="http://www.w3.org/2000/svg" width="200" height="200" viewBox="0 0 200 200"><g transform="translate(5514 19568)"><rect width="200" height="200" transform="translate(-5514 -19568)" fill="rgba(255,255,255,0)"/><g transform="translate(-5490.026 -19537.324)"><path d="M47.161,22.163c-2.617,6.942-20.826,54.4-30.044,77.727-3.869,9.559-10.128,24.467,2.048,30.84,3.3,1.707,6.031,1.593,9.673,1.593h81.368a30.546,30.546,0,0,0,16.843-6.487,32.273,32.273,0,0,0,11.266-16.5,39.793,39.793,0,0,0-2.5-29.361A28.02,28.02,0,0,0,120.9,66.66a1.829,1.829,0,0,1,.228-2.617c10.7-8.649,14.908-25.378,9.559-38.237-.455-1.024-.91-2.162-1.479-3.186C123.75,12.376,113.963,6.8,100.534,6.8H75.043C63.549,7.369,52.51,7.824,47.161,22.163Z" fill="#fff"/><g transform="translate(20.78 15.677)"><path d="M88.874,62.511c16.956,0,26.743-9.446,26.743-24.126,0-14.339-8.649-23.785-27.768-23.785H69.3V62.511Z" transform="translate(-12.875 -14.6)" fill="#3f51b5"/><path d="M89.657,116.087c21.167,0,33.8-8.421,33.8-26.743,0-19.119-12.291-26.743-32.434-26.743H69.4v53.373H89.657Z" transform="translate(-12.862 -7.975)" fill="#f05a2b"/><path d="M37.5,62.738H67.43V14.6H63.561A11.462,11.462,0,0,0,53.2,21.087c-1.252,2.617-2.617,5.462-3.755,7.966Z" transform="translate(-17.264 -14.6)" fill="#f49021" fill-rule="evenodd"/><path d="M20.949,102.741c-3.073,6.942,0,12.063,4.893,13.429.91.228,23.557,0,23.557,0H70V62H37.792Z" transform="translate(-19.719 -8.058)" fill="#282560" fill-rule="evenodd"/></g><circle cx="8.763" cy="8.763" r="8.763" transform="translate(65.483 58.352)" fill="#fff"/></g></g></svg>